<svg xmlns="http://www.w3.org/2000/svg" width="13" height="13" viewBox="0 0 13 13">
  <g id="_16进制亮色关闭" data-name="16进制亮色关闭" transform="translate(-72 -4)">
    <g id="组_415" data-name="组 415" transform="translate(17)">
      <g id="组_413" data-name="组 413" transform="translate(8 1)">
        <g id="矩形_140" data-name="矩形 140" transform="translate(47 3)" fill="#ffffff00" stroke="#f6bb38" stroke-width="0.3">
          <rect width="13" height="13" rx="1" stroke="none"/>
          <rect x="0.15" y="0.15" width="12.7" height="12.7" rx="0.85" fill="none"/>
        </g>
        <g id="开关" transform="translate(48.05 4.28)">
          <path id="路径_641" data-name="路径 641" d="M138.038,192h-9.126a1.015,1.015,0,0,0-.913,1.091v8.729a1.015,1.015,0,0,0,.913,1.091h9.126a1.015,1.015,0,0,0,.913-1.091v-8.729A1.015,1.015,0,0,0,138.038,192Zm-9.126,9.82v-8.729h9.126v8.729Z" transform="translate(-128 -192)" fill="#f6bb38"/>
          <path id="路径_642" data-name="路径 642" d="M325.019,288h-4.563a.554.554,0,0,0,0,1.091h4.563a.554.554,0,0,0,0-1.091Z" transform="translate(-317.262 -285.162)" fill="#f6bb38"/>
        </g>
      </g>
    </g>
    <path id="路径_644" data-name="路径 644" d="M2842.4,9105.47c11.944-12.048,11.809-11.878,11.809-11.878" transform="translate(-2769.829 -9089.068)" fill="#f6bb38" stroke="#f6bb38" stroke-linecap="round" stroke-width="0.5"/>
  </g>
</svg>
